<svg width="20" height="20" viewBox="0 0 20 20" fill="none" xmlns="http://www.w3.org/2000/svg">
<path d="M6.66663 6.66667L6.66663 6.25003V6.25003C6.66663 5.70823 6.66663 5.43733 6.69284 5.2095C6.90533 3.36248 8.36244 1.90537 10.2095 1.69288C10.4373 1.66667 10.7082 1.66667 11.25 1.66667L12.5 1.66667C14.2074 1.66667 15.0611 1.66667 15.7423 1.92304C16.8204 2.3288 17.6712 3.17961 18.0769 4.25767C18.3333 4.93884 18.3333 5.79256 18.3333 7.5L18.3333 12.5C18.3333 14.2074 18.3333 15.0612 18.0769 15.7423C17.6712 16.8204 16.8204 17.6712 15.7423 18.077C15.0611 18.3333 14.2074 18.3333 12.5 18.3333H11.2499C10.7082 18.3333 10.4373 18.3333 10.2095 18.3071C8.36244 18.0946 6.90531 16.6375 6.69283 14.7905C6.66663 14.5626 6.66663 14.2918 6.66663 13.75V13.75L6.66663 13.3333M1.66663 10H14.1666M14.1666 10L10.8333 6.66667M14.1666 10L10.8333 13.3333" stroke="black" stroke-width="1.5" stroke-linecap="round" stroke-linejoin="round"/>
</svg>
